<svg xmlns="http://www.w3.org/2000/svg" version="1.1" id="svg3463" width="32" height="32" viewBox="0 0 62 62.000999" xml:space="preserve" class="tierid_3 locale_en_US"><style id="style3465">
        .graphic{}
        .logomark .foreground{fill: #FFFFFF;}
        .tierid_0 .logomark .background{fill: #f7b617;}
        .tierid_2 .logomark .background{fill: #b2b5b8;}
        .tierid_3 .logomark .background{fill: #f7b617;}

    </style><g id="g3467" transform="translate(-1,-1)" class="logomark"><path id="path3469" d="M 63,32 C 63,49.121 49.121,63.001 32,63.001 14.879,63.001 1,49.121 1,32 1,14.879 14.879,1 32,1 49.121,1 63,14.879 63,32 Z" class="background"/><g id="g3471" style="fill:#ffffff" class="foreground"><path id="path3473" d="m 38.541,34.098 -8.082,0 0,-8.081 c 0,-0.705 -0.572,-1.277 -1.276,-1.277 l -6.381,0 c -0.705,0 -1.276,0.572 -1.276,1.277 l 0,8.081 -8.081,0 c -0.706,0 -1.276,0.572 -1.276,1.275 l 0,6.382 c 0,0.703 0.57,1.275 1.276,1.275 l 8.081,0 0,8.081 c 0,0.707 0.571,1.278 1.276,1.278 l 6.381,0 c 0.704,0 1.276,-0.571 1.276,-1.278 l 0,-8.081 8.082,0 c 0.704,0 1.275,-0.572 1.275,-1.275 l 0,-6.382 c 0,-0.703 -0.571,-1.275 -1.275,-1.275 z"/><path id="path3475" d="m 29.4,14.826 3.856,0 0,-3.857 c 0,-0.455 0.37,-0.826 0.826,-0.826 l 3.304,0 c 0.457,0 0.827,0.371 0.827,0.826 l 0,3.857 3.856,0 c 0.456,0 0.826,0.369 0.826,0.826 l 0,3.304 c 0,0.457 -0.37,0.827 -0.826,0.827 l -3.856,0 0,4.131 c 0,0.456 -0.37,0.826 -0.827,0.826 l -3.304,0 c -0.456,0 -0.826,-0.37 -0.826,-0.826 l 0,-4.131 -3.856,0 c -0.457,0 -0.826,-0.37 -0.826,-0.827 l 0,-3.304 c 0,-0.457 0.369,-0.826 0.826,-0.826 z"/><path id="path3477" d="m 41.934,26.529 3.855,0 0,-3.857 c 0,-0.455 0.37,-0.826 0.826,-0.826 l 3.306,0 c 0.456,0 0.825,0.371 0.825,0.826 l 0,3.857 3.856,0 c 0.456,0 0.826,0.369 0.826,0.826 l 0,3.304 c 0,0.457 -0.37,0.826 -0.826,0.826 l -3.856,0 0,4.131 c 0,0.456 -0.369,0.827 -0.825,0.827 l -3.306,0 c -0.456,0 -0.826,-0.371 -0.826,-0.827 l 0,-4.131 -3.855,0 c -0.456,0 -0.827,-0.369 -0.827,-0.826 l 0,-3.304 c 0,-0.457 0.371,-0.826 0.827,-0.826 z"/></g></g></svg>